<svg width="17" height="17" viewBox="0 0 17 17" fill="none" xmlns="http://www.w3.org/2000/svg">
<mask id="path-1-outside-1_1288_50098" maskUnits="userSpaceOnUse" x="0" y="0" width="17" height="17" fill="black">
<rect fill="white" width="17" height="17"/>
<path d="M15.8152 11.5533C15.6972 11.2763 15.4755 11.0571 15.1982 10.9435C14.9208 10.8298 14.61 10.8307 14.3333 10.946L13.5833 11.2606C13.4994 10.9549 13.3548 10.6695 13.1583 10.4215C12.9619 10.1735 12.7176 9.968 12.4402 9.81747C12.1627 9.66693 11.8579 9.57444 11.5441 9.54554C11.2302 9.51664 10.9137 9.55195 10.6138 9.64932C10.4251 9.39723 10.1882 9.18563 9.91706 9.02696C9.64594 8.86828 9.34604 8.76572 9.03497 8.72531V6.44163C9.03366 6.04607 9.13765 5.65737 9.33615 5.31594C9.53464 4.97451 9.82039 4.69282 10.1637 4.50014L11.1736 4.7723C11.3995 4.83354 11.6323 4.86466 11.8662 4.86488C12.451 4.86327 13.0189 4.66803 13.4824 4.30931C13.9459 3.95058 14.2792 3.44832 14.4308 2.88003L14.731 1.75211C14.7509 1.67709 14.7404 1.59719 14.7018 1.52995C14.6632 1.46271 14.5997 1.41364 14.5252 1.39352L13.4023 1.09118C12.721 0.908291 11.9954 1.00484 11.3847 1.35965C10.7741 1.71446 10.3283 2.29854 10.1451 2.98374L9.87751 3.98862C9.3876 4.26351 8.99179 4.68111 8.7421 5.18656C8.49224 4.68123 8.09647 4.26367 7.60668 3.98862L7.33883 2.98374C7.24846 2.64425 7.09252 2.326 6.87992 2.04716C6.66732 1.76832 6.40222 1.53435 6.09976 1.3586C5.7973 1.18286 5.4634 1.06879 5.11713 1.02291C4.77086 0.977021 4.419 1.00022 4.08164 1.09118L2.96107 1.39352C2.88649 1.41357 2.82288 1.46262 2.78422 1.52986C2.74557 1.59711 2.73504 1.67705 2.75495 1.75211L3.0554 2.88003C3.20682 3.44858 3.54006 3.95115 4.00364 4.3101C4.46722 4.66906 5.03535 4.86443 5.62028 4.86605C5.85417 4.86582 6.08703 4.83469 6.31288 4.77348L7.32282 4.50131C7.66609 4.694 7.9518 4.97571 8.15025 5.31714C8.3487 5.65857 8.45263 6.04726 8.45125 6.4428V8.72794C7.95712 8.79078 7.49575 9.0105 7.13417 9.35518C6.6644 9.27321 6.18121 9.3252 5.73928 9.50528C5.29736 9.68535 4.91436 9.98633 4.63363 10.3741C4.19274 10.4142 3.75813 10.5068 3.33896 10.6501H1.29113C1.21392 10.6501 1.13987 10.681 1.08527 10.7359C1.03067 10.7908 1 10.8654 1 10.9431V15.1676C1 15.2453 1.03067 15.3199 1.08527 15.3748C1.13987 15.4297 1.21392 15.4606 1.29113 15.4606H3.36487L6.4602 15.9402C7.3356 16.0801 8.23241 15.9734 9.05128 15.632L11.4968 14.609C11.5067 14.6059 11.5164 14.6024 11.5259 14.5984L12.2811 14.2823C12.5629 14.1651 15.7057 12.7176 15.821 12.4331C15.8783 12.2935 15.9073 12.1437 15.9063 11.9926C15.9053 11.8415 15.8743 11.6922 15.8152 11.5533ZM10.7081 3.13521C10.8514 2.60006 11.1997 2.14393 11.6767 1.86686C12.1537 1.58978 12.7204 1.51438 13.2526 1.65719L14.0919 1.88365L13.8681 2.7274C13.7975 2.99258 13.6757 3.24118 13.5096 3.459C13.3436 3.67681 13.1365 3.85957 12.9002 3.99685C12.664 4.13413 12.4032 4.22323 12.1327 4.25906C11.8622 4.2949 11.5874 4.27677 11.3239 4.20571L10.8822 4.08647L11.5291 3.71059C11.5954 3.67147 11.6437 3.60753 11.6633 3.53274C11.683 3.45794 11.6724 3.37837 11.634 3.31137C11.5956 3.24437 11.5323 3.19539 11.4581 3.17512C11.384 3.15485 11.3048 3.16494 11.238 3.20317L10.5899 3.57993L10.7081 3.13521ZM5.95741 3.71147L6.60401 4.08735L6.16236 4.20658C5.89879 4.27763 5.62389 4.29573 5.35337 4.25983C5.08285 4.22394 4.822 4.13477 4.58573 3.9974C4.34946 3.86004 4.14241 3.67718 3.97639 3.45927C3.81037 3.24135 3.68864 2.99266 3.61816 2.7274L3.39311 1.88365L4.23157 1.65719C4.76376 1.51373 5.33078 1.58885 5.80795 1.86602C6.28511 2.14319 6.63334 2.59971 6.77608 3.13521L6.89427 3.57993L6.24738 3.20405C6.21425 3.18451 6.17762 3.17176 6.13958 3.16652C6.10154 3.16129 6.06285 3.16368 6.02573 3.17356C5.98861 3.18343 5.95379 3.2006 5.92329 3.22407C5.89279 3.24754 5.86721 3.27684 5.84801 3.3103C5.82881 3.34376 5.81638 3.38071 5.81144 3.41903C5.80649 3.45734 5.80912 3.49626 5.81918 3.53355C5.82924 3.57084 5.84652 3.60575 5.87005 3.63629C5.89357 3.66682 5.92287 3.69237 5.95624 3.71147H5.95741ZM10.3998 13.8724C10.3358 13.9195 10.2615 13.9506 10.1832 13.963C10.1049 13.9754 10.0247 13.9689 9.94942 13.9439L7.00723 12.9862C6.97835 12.9769 6.9482 12.9721 6.91786 12.9722H6.25058C6.17337 12.9722 6.09932 13.003 6.04472 13.058C5.99012 13.1129 5.95945 13.1874 5.95945 13.2651C5.95945 13.3428 5.99012 13.4173 6.04472 13.4723C6.09932 13.5272 6.17337 13.5581 6.25058 13.5581H6.87186L9.77038 14.5017C9.87837 14.5369 9.99109 14.5552 10.1046 14.5559L8.82798 15.0906C8.10817 15.3906 7.31987 15.4842 6.55045 15.361L3.41 14.8764C3.39515 14.8741 3.42485 14.8729 3.41 14.8729H1.58227V11.2334H3.45745C4.76755 10.7726 6.25436 10.8619 7.48469 11.5097L10.3378 13.0114C10.4139 13.0515 10.4787 13.1105 10.5258 13.1828C10.5729 13.2552 10.6009 13.3384 10.607 13.4247C10.6132 13.511 10.5973 13.5974 10.5609 13.6757C10.5246 13.7541 10.4689 13.8218 10.3992 13.8724H10.3998ZM10.617 12.4973L7.75428 10.9905C7.03729 10.614 6.24806 10.3973 5.44036 10.3554C5.79373 10.0608 6.23832 9.89989 6.69718 9.90039C6.8541 9.9005 7.01045 9.91928 7.16299 9.95635C7.21374 9.96863 7.26684 9.96695 7.31673 9.95149C7.36662 9.93602 7.41146 9.90735 7.44656 9.86846C7.63106 9.66455 7.86049 9.50699 8.11645 9.40845C8.37241 9.30991 8.64775 9.27312 8.9204 9.30104C9.19304 9.32895 9.45538 9.4208 9.68637 9.5692C9.91735 9.71761 10.1105 9.91843 10.2505 10.1556C10.287 10.2171 10.3447 10.263 10.4126 10.2846C10.4805 10.3062 10.554 10.302 10.619 10.2728C10.8553 10.1669 11.1119 10.1149 11.3705 10.1206C11.629 10.1262 11.8831 10.1894 12.1146 10.3056C12.346 10.4217 12.5491 10.588 12.7091 10.7924C12.8692 10.9968 12.9823 11.2344 13.0404 11.488L10.6176 12.4964L10.617 12.4973ZM15.2824 12.2107C15.2265 12.3493 12.1964 13.6829 12.0581 13.7403L11.8383 13.8323C11.8284 13.8353 11.8187 13.8389 11.8092 13.8428L10.8758 14.2334C11.0391 14.0681 11.1458 13.8548 11.1804 13.6243C11.215 13.3939 11.1756 13.1583 11.068 12.9519L14.5589 11.4871C14.6598 11.4448 14.7708 11.4336 14.878 11.4547C14.9851 11.4758 15.0837 11.5284 15.1612 11.6058C15.2388 11.6833 15.2918 11.7821 15.3136 11.8898C15.3354 11.9975 15.3251 12.1092 15.2838 12.211L15.2824 12.2107Z"/>
</mask>
<path d="M15.8152 11.5533C15.6972 11.2763 15.4755 11.0571 15.1982 10.9435C14.9208 10.8298 14.61 10.8307 14.3333 10.946L13.5833 11.2606C13.4994 10.9549 13.3548 10.6695 13.1583 10.4215C12.9619 10.1735 12.7176 9.968 12.4402 9.81747C12.1627 9.66693 11.8579 9.57444 11.5441 9.54554C11.2302 9.51664 10.9137 9.55195 10.6138 9.64932C10.4251 9.39723 10.1882 9.18563 9.91706 9.02696C9.64594 8.86828 9.34604 8.76572 9.03497 8.72531V6.44163C9.03366 6.04607 9.13765 5.65737 9.33615 5.31594C9.53464 4.97451 9.82039 4.69282 10.1637 4.50014L11.1736 4.7723C11.3995 4.83354 11.6323 4.86466 11.8662 4.86488C12.451 4.86327 13.0189 4.66803 13.4824 4.30931C13.9459 3.95058 14.2792 3.44832 14.4308 2.88003L14.731 1.75211C14.7509 1.67709 14.7404 1.59719 14.7018 1.52995C14.6632 1.46271 14.5997 1.41364 14.5252 1.39352L13.4023 1.09118C12.721 0.908291 11.9954 1.00484 11.3847 1.35965C10.7741 1.71446 10.3283 2.29854 10.1451 2.98374L9.87751 3.98862C9.3876 4.26351 8.99179 4.68111 8.7421 5.18656C8.49224 4.68123 8.09647 4.26367 7.60668 3.98862L7.33883 2.98374C7.24846 2.64425 7.09252 2.326 6.87992 2.04716C6.66732 1.76832 6.40222 1.53435 6.09976 1.3586C5.7973 1.18286 5.4634 1.06879 5.11713 1.02291C4.77086 0.977021 4.419 1.00022 4.08164 1.09118L2.96107 1.39352C2.88649 1.41357 2.82288 1.46262 2.78422 1.52986C2.74557 1.59711 2.73504 1.67705 2.75495 1.75211L3.0554 2.88003C3.20682 3.44858 3.54006 3.95115 4.00364 4.3101C4.46722 4.66906 5.03535 4.86443 5.62028 4.86605C5.85417 4.86582 6.08703 4.83469 6.31288 4.77348L7.32282 4.50131C7.66609 4.694 7.9518 4.97571 8.15025 5.31714C8.3487 5.65857 8.45263 6.04726 8.45125 6.4428V8.72794C7.95712 8.79078 7.49575 9.0105 7.13417 9.35518C6.6644 9.27321 6.18121 9.3252 5.73928 9.50528C5.29736 9.68535 4.91436 9.98633 4.63363 10.3741C4.19274 10.4142 3.75813 10.5068 3.33896 10.6501H1.29113C1.21392 10.6501 1.13987 10.681 1.08527 10.7359C1.03067 10.7908 1 10.8654 1 10.9431V15.1676C1 15.2453 1.03067 15.3199 1.08527 15.3748C1.13987 15.4297 1.21392 15.4606 1.29113 15.4606H3.36487L6.4602 15.9402C7.3356 16.0801 8.23241 15.9734 9.05128 15.632L11.4968 14.609C11.5067 14.6059 11.5164 14.6024 11.5259 14.5984L12.2811 14.2823C12.5629 14.1651 15.7057 12.7176 15.821 12.4331C15.8783 12.2935 15.9073 12.1437 15.9063 11.9926C15.9053 11.8415 15.8743 11.6922 15.8152 11.5533ZM10.7081 3.13521C10.8514 2.60006 11.1997 2.14393 11.6767 1.86686C12.1537 1.58978 12.7204 1.51438 13.2526 1.65719L14.0919 1.88365L13.8681 2.7274C13.7975 2.99258 13.6757 3.24118 13.5096 3.459C13.3436 3.67681 13.1365 3.85957 12.9002 3.99685C12.664 4.13413 12.4032 4.22323 12.1327 4.25906C11.8622 4.2949 11.5874 4.27677 11.3239 4.20571L10.8822 4.08647L11.5291 3.71059C11.5954 3.67147 11.6437 3.60753 11.6633 3.53274C11.683 3.45794 11.6724 3.37837 11.634 3.31137C11.5956 3.24437 11.5323 3.19539 11.4581 3.17512C11.384 3.15485 11.3048 3.16494 11.238 3.20317L10.5899 3.57993L10.7081 3.13521ZM5.95741 3.71147L6.60401 4.08735L6.16236 4.20658C5.89879 4.27763 5.62389 4.29573 5.35337 4.25983C5.08285 4.22394 4.822 4.13477 4.58573 3.9974C4.34946 3.86004 4.14241 3.67718 3.97639 3.45927C3.81037 3.24135 3.68864 2.99266 3.61816 2.7274L3.39311 1.88365L4.23157 1.65719C4.76376 1.51373 5.33078 1.58885 5.80795 1.86602C6.28511 2.14319 6.63334 2.59971 6.77608 3.13521L6.89427 3.57993L6.24738 3.20405C6.21425 3.18451 6.17762 3.17176 6.13958 3.16652C6.10154 3.16129 6.06285 3.16368 6.02573 3.17356C5.98861 3.18343 5.95379 3.2006 5.92329 3.22407C5.89279 3.24754 5.86721 3.27684 5.84801 3.3103C5.82881 3.34376 5.81638 3.38071 5.81144 3.41903C5.80649 3.45734 5.80912 3.49626 5.81918 3.53355C5.82924 3.57084 5.84652 3.60575 5.87005 3.63629C5.89357 3.66682 5.92287 3.69237 5.95624 3.71147H5.95741ZM10.3998 13.8724C10.3358 13.9195 10.2615 13.9506 10.1832 13.963C10.1049 13.9754 10.0247 13.9689 9.94942 13.9439L7.00723 12.9862C6.97835 12.9769 6.9482 12.9721 6.91786 12.9722H6.25058C6.17337 12.9722 6.09932 13.003 6.04472 13.058C5.99012 13.1129 5.95945 13.1874 5.95945 13.2651C5.95945 13.3428 5.99012 13.4173 6.04472 13.4723C6.09932 13.5272 6.17337 13.5581 6.25058 13.5581H6.87186L9.77038 14.5017C9.87837 14.5369 9.99109 14.5552 10.1046 14.5559L8.82798 15.0906C8.10817 15.3906 7.31987 15.4842 6.55045 15.361L3.41 14.8764C3.39515 14.8741 3.42485 14.8729 3.41 14.8729H1.58227V11.2334H3.45745C4.76755 10.7726 6.25436 10.8619 7.48469 11.5097L10.3378 13.0114C10.4139 13.0515 10.4787 13.1105 10.5258 13.1828C10.5729 13.2552 10.6009 13.3384 10.607 13.4247C10.6132 13.511 10.5973 13.5974 10.5609 13.6757C10.5246 13.7541 10.4689 13.8218 10.3992 13.8724H10.3998ZM10.617 12.4973L7.75428 10.9905C7.03729 10.614 6.24806 10.3973 5.44036 10.3554C5.79373 10.0608 6.23832 9.89989 6.69718 9.90039C6.8541 9.9005 7.01045 9.91928 7.16299 9.95635C7.21374 9.96863 7.26684 9.96695 7.31673 9.95149C7.36662 9.93602 7.41146 9.90735 7.44656 9.86846C7.63106 9.66455 7.86049 9.50699 8.11645 9.40845C8.37241 9.30991 8.64775 9.27312 8.9204 9.30104C9.19304 9.32895 9.45538 9.4208 9.68637 9.5692C9.91735 9.71761 10.1105 9.91843 10.2505 10.1556C10.287 10.2171 10.3447 10.263 10.4126 10.2846C10.4805 10.3062 10.554 10.302 10.619 10.2728C10.8553 10.1669 11.1119 10.1149 11.3705 10.1206C11.629 10.1262 11.8831 10.1894 12.1146 10.3056C12.346 10.4217 12.5491 10.588 12.7091 10.7924C12.8692 10.9968 12.9823 11.2344 13.0404 11.488L10.6176 12.4964L10.617 12.4973ZM15.2824 12.2107C15.2265 12.3493 12.1964 13.6829 12.0581 13.7403L11.8383 13.8323C11.8284 13.8353 11.8187 13.8389 11.8092 13.8428L10.8758 14.2334C11.0391 14.0681 11.1458 13.8548 11.1804 13.6243C11.215 13.3939 11.1756 13.1583 11.068 12.9519L14.5589 11.4871C14.6598 11.4448 14.7708 11.4336 14.878 11.4547C14.9851 11.4758 15.0837 11.5284 15.1612 11.6058C15.2388 11.6833 15.2918 11.7821 15.3136 11.8898C15.3354 11.9975 15.3251 12.1092 15.2838 12.211L15.2824 12.2107Z" fill="#F58667"/>
<path d="M15.8152 11.5533C15.6972 11.2763 15.4755 11.0571 15.1982 10.9435C14.9208 10.8298 14.61 10.8307 14.3333 10.946L13.5833 11.2606C13.4994 10.9549 13.3548 10.6695 13.1583 10.4215C12.9619 10.1735 12.7176 9.968 12.4402 9.81747C12.1627 9.66693 11.8579 9.57444 11.5441 9.54554C11.2302 9.51664 10.9137 9.55195 10.6138 9.64932C10.4251 9.39723 10.1882 9.18563 9.91706 9.02696C9.64594 8.86828 9.34604 8.76572 9.03497 8.72531V6.44163C9.03366 6.04607 9.13765 5.65737 9.33615 5.31594C9.53464 4.97451 9.82039 4.69282 10.1637 4.50014L11.1736 4.7723C11.3995 4.83354 11.6323 4.86466 11.8662 4.86488C12.451 4.86327 13.0189 4.66803 13.4824 4.30931C13.9459 3.95058 14.2792 3.44832 14.4308 2.88003L14.731 1.75211C14.7509 1.67709 14.7404 1.59719 14.7018 1.52995C14.6632 1.46271 14.5997 1.41364 14.5252 1.39352L13.4023 1.09118C12.721 0.908291 11.9954 1.00484 11.3847 1.35965C10.7741 1.71446 10.3283 2.29854 10.1451 2.98374L9.87751 3.98862C9.3876 4.26351 8.99179 4.68111 8.7421 5.18656C8.49224 4.68123 8.09647 4.26367 7.60668 3.98862L7.33883 2.98374C7.24846 2.64425 7.09252 2.326 6.87992 2.04716C6.66732 1.76832 6.40222 1.53435 6.09976 1.3586C5.7973 1.18286 5.4634 1.06879 5.11713 1.02291C4.77086 0.977021 4.419 1.00022 4.08164 1.09118L2.96107 1.39352C2.88649 1.41357 2.82288 1.46262 2.78422 1.52986C2.74557 1.59711 2.73504 1.67705 2.75495 1.75211L3.0554 2.88003C3.20682 3.44858 3.54006 3.95115 4.00364 4.3101C4.46722 4.66906 5.03535 4.86443 5.62028 4.86605C5.85417 4.86582 6.08703 4.83469 6.31288 4.77348L7.32282 4.50131C7.66609 4.694 7.9518 4.97571 8.15025 5.31714C8.3487 5.65857 8.45263 6.04726 8.45125 6.4428V8.72794C7.95712 8.79078 7.49575 9.0105 7.13417 9.35518C6.6644 9.27321 6.18121 9.3252 5.73928 9.50528C5.29736 9.68535 4.91436 9.98633 4.63363 10.3741C4.19274 10.4142 3.75813 10.5068 3.33896 10.6501H1.29113C1.21392 10.6501 1.13987 10.681 1.08527 10.7359C1.03067 10.7908 1 10.8654 1 10.9431V15.1676C1 15.2453 1.03067 15.3199 1.08527 15.3748C1.13987 15.4297 1.21392 15.4606 1.29113 15.4606H3.36487L6.4602 15.9402C7.3356 16.0801 8.23241 15.9734 9.05128 15.632L11.4968 14.609C11.5067 14.6059 11.5164 14.6024 11.5259 14.5984L12.2811 14.2823C12.5629 14.1651 15.7057 12.7176 15.821 12.4331C15.8783 12.2935 15.9073 12.1437 15.9063 11.9926C15.9053 11.8415 15.8743 11.6922 15.8152 11.5533ZM10.7081 3.13521C10.8514 2.60006 11.1997 2.14393 11.6767 1.86686C12.1537 1.58978 12.7204 1.51438 13.2526 1.65719L14.0919 1.88365L13.8681 2.7274C13.7975 2.99258 13.6757 3.24118 13.5096 3.459C13.3436 3.67681 13.1365 3.85957 12.9002 3.99685C12.664 4.13413 12.4032 4.22323 12.1327 4.25906C11.8622 4.2949 11.5874 4.27677 11.3239 4.20571L10.8822 4.08647L11.5291 3.71059C11.5954 3.67147 11.6437 3.60753 11.6633 3.53274C11.683 3.45794 11.6724 3.37837 11.634 3.31137C11.5956 3.24437 11.5323 3.19539 11.4581 3.17512C11.384 3.15485 11.3048 3.16494 11.238 3.20317L10.5899 3.57993L10.7081 3.13521ZM5.95741 3.71147L6.60401 4.08735L6.16236 4.20658C5.89879 4.27763 5.62389 4.29573 5.35337 4.25983C5.08285 4.22394 4.822 4.13477 4.58573 3.9974C4.34946 3.86004 4.14241 3.67718 3.97639 3.45927C3.81037 3.24135 3.68864 2.99266 3.61816 2.7274L3.39311 1.88365L4.23157 1.65719C4.76376 1.51373 5.33078 1.58885 5.80795 1.86602C6.28511 2.14319 6.63334 2.59971 6.77608 3.13521L6.89427 3.57993L6.24738 3.20405C6.21425 3.18451 6.17762 3.17176 6.13958 3.16652C6.10154 3.16129 6.06285 3.16368 6.02573 3.17356C5.98861 3.18343 5.95379 3.2006 5.92329 3.22407C5.89279 3.24754 5.86721 3.27684 5.84801 3.3103C5.82881 3.34376 5.81638 3.38071 5.81144 3.41903C5.80649 3.45734 5.80912 3.49626 5.81918 3.53355C5.82924 3.57084 5.84652 3.60575 5.87005 3.63629C5.89357 3.66682 5.92287 3.69237 5.95624 3.71147H5.95741ZM10.3998 13.8724C10.3358 13.9195 10.2615 13.9506 10.1832 13.963C10.1049 13.9754 10.0247 13.9689 9.94942 13.9439L7.00723 12.9862C6.97835 12.9769 6.9482 12.9721 6.91786 12.9722H6.25058C6.17337 12.9722 6.09932 13.003 6.04472 13.058C5.99012 13.1129 5.95945 13.1874 5.95945 13.2651C5.95945 13.3428 5.99012 13.4173 6.04472 13.4723C6.09932 13.5272 6.17337 13.5581 6.25058 13.5581H6.87186L9.77038 14.5017C9.87837 14.5369 9.99109 14.5552 10.1046 14.5559L8.82798 15.0906C8.10817 15.3906 7.31987 15.4842 6.55045 15.361L3.41 14.8764C3.39515 14.8741 3.42485 14.8729 3.41 14.8729H1.58227V11.2334H3.45745C4.76755 10.7726 6.25436 10.8619 7.48469 11.5097L10.3378 13.0114C10.4139 13.0515 10.4787 13.1105 10.5258 13.1828C10.5729 13.2552 10.6009 13.3384 10.607 13.4247C10.6132 13.511 10.5973 13.5974 10.5609 13.6757C10.5246 13.7541 10.4689 13.8218 10.3992 13.8724H10.3998ZM10.617 12.4973L7.75428 10.9905C7.03729 10.614 6.24806 10.3973 5.44036 10.3554C5.79373 10.0608 6.23832 9.89989 6.69718 9.90039C6.8541 9.9005 7.01045 9.91928 7.16299 9.95635C7.21374 9.96863 7.26684 9.96695 7.31673 9.95149C7.36662 9.93602 7.41146 9.90735 7.44656 9.86846C7.63106 9.66455 7.86049 9.50699 8.11645 9.40845C8.37241 9.30991 8.64775 9.27312 8.9204 9.30104C9.19304 9.32895 9.45538 9.4208 9.68637 9.5692C9.91735 9.71761 10.1105 9.91843 10.2505 10.1556C10.287 10.2171 10.3447 10.263 10.4126 10.2846C10.4805 10.3062 10.554 10.302 10.619 10.2728C10.8553 10.1669 11.1119 10.1149 11.3705 10.1206C11.629 10.1262 11.8831 10.1894 12.1146 10.3056C12.346 10.4217 12.5491 10.588 12.7091 10.7924C12.8692 10.9968 12.9823 11.2344 13.0404 11.488L10.6176 12.4964L10.617 12.4973ZM15.2824 12.2107C15.2265 12.3493 12.1964 13.6829 12.0581 13.7403L11.8383 13.8323C11.8284 13.8353 11.8187 13.8389 11.8092 13.8428L10.8758 14.2334C11.0391 14.0681 11.1458 13.8548 11.1804 13.6243C11.215 13.3939 11.1756 13.1583 11.068 12.9519L14.5589 11.4871C14.6598 11.4448 14.7708 11.4336 14.878 11.4547C14.9851 11.4758 15.0837 11.5284 15.1612 11.6058C15.2388 11.6833 15.2918 11.7821 15.3136 11.8898C15.3354 11.9975 15.3251 12.1092 15.2838 12.211L15.2824 12.2107Z" stroke="#F58667" stroke-width="0.5" mask="url(#path-1-outside-1_1288_50098)"/>
</svg>
