<?xml version="1.0" encoding="UTF-8"?>
<svg version="1.1" xmlns="http://www.w3.org/2000/svg" width="97" height="96">
<path d="M0 0 C10.66603096 7.26319534 16.98614832 16.44896216 19.73828125 29.1796875 C21.29594008 41.74145224 17.89254109 53.22179337 10.57421875 63.34765625 C6.24246782 68.75979682 1.27044338 72.14993456 -4.8984375 75.234375 C-5.89230469 75.74677734 -5.89230469 75.74677734 -6.90625 76.26953125 C-15.89875295 80.06048838 -28.66184611 79.70440459 -37.8359375 76.734375 C-49.86649221 71.44906218 -58.05751803 63.20245804 -63.3359375 51.234375 C-66.62630425 41.20659062 -66.54159279 28.45139981 -62.28125 18.75390625 C-55.98405957 7.28021182 -47.77555551 -0.96219565 -35.1484375 -5.10546875 C-22.82530543 -7.60860495 -10.813978 -6.58749064 0 0 Z M-39.8984375 19.234375 C-39.53852032 24.28244414 -36.85445709 26.75677366 -33.3359375 30.046875 C-32.81580078 30.54896484 -32.29566406 31.05105469 -31.75976562 31.56835938 C-30.4815518 32.79966627 -29.19116603 34.0183157 -27.8984375 35.234375 C-29.89659154 40.19530916 -33.94215053 43.22966643 -37.78125 46.796875 C-40.33561034 49.19958757 -40.33561034 49.19958757 -39.8984375 53.234375 C-34.85036836 52.87445782 -32.37603884 50.19039459 -29.0859375 46.671875 C-28.33280273 45.89166992 -28.33280273 45.89166992 -27.56445312 45.09570312 C-26.33314623 43.8174893 -25.1144968 42.52710353 -23.8984375 41.234375 C-18.92486051 43.22150853 -15.95059343 47.32820578 -12.43359375 51.21484375 C-10.06923056 53.56569489 -10.06923056 53.56569489 -7.08203125 53.03515625 C-6.00115234 52.63876953 -6.00115234 52.63876953 -4.8984375 52.234375 C-6.50854277 48.16061469 -9.43666021 45.46930431 -12.5234375 42.484375 C-13.0390625 41.97777344 -13.5546875 41.47117187 -14.0859375 40.94921875 C-15.35227089 39.70633598 -16.6247519 38.46972224 -17.8984375 37.234375 C-16.28833223 33.16061469 -13.36021479 30.46930431 -10.2734375 27.484375 C-9.7578125 26.97777344 -9.2421875 26.47117187 -8.7109375 25.94921875 C-7.44460411 24.70633598 -6.1721231 23.46972224 -4.8984375 22.234375 C-5.3934375 20.749375 -5.3934375 20.749375 -5.8984375 19.234375 C-10.94650664 19.59429218 -13.42083616 22.27835541 -16.7109375 25.796875 C-17.21302734 26.31701172 -17.71511719 26.83714844 -18.23242188 27.37304688 C-19.46372877 28.6512607 -20.6823782 29.94164647 -21.8984375 31.234375 C-26.85937166 29.23622096 -29.89372893 25.19066197 -33.4609375 21.3515625 C-35.86365007 18.79720216 -35.86365007 18.79720216 -39.8984375 19.234375 Z " fill="#AFB8C1" transform="translate(70.8984375,11.765625)"/>
</svg>