<svg width="16" height="16" viewBox="0 0 16 16" fill="none" xmlns="http://www.w3.org/2000/svg">
<path d="M14.0005 14.9677H12.9682V2.32258C12.9682 2.03755 12.7372 1.80645 12.4521 1.80645H8.58115V0.516129C8.58115 0.231097 8.35008 0 8.06502 0H4.48438C4.19934 0 3.96825 0.231097 3.96825 0.516129V1.80645H3.54889C3.26386 1.80645 3.03276 2.03755 3.03276 2.32258V14.9677H2.0005C1.71547 14.9677 1.48438 15.1988 1.48438 15.4839C1.48438 15.7689 1.71547 16 2.0005 16H14.0005C14.2856 16 14.5166 15.7689 14.5166 15.4839C14.5166 15.1988 14.2856 14.9677 14.0005 14.9677ZM5.0005 1.03226H7.54889V1.80645H5.0005V1.03226ZM6.96825 14.9677V12.7742H9.03276V14.9677H6.96825ZM10.065 14.9677V12.7742H10.2908C10.5759 12.7742 10.807 12.5431 10.807 12.2581C10.807 11.973 10.5759 11.7419 10.2908 11.7419C8.49554 11.7419 7.37302 11.7419 5.71018 11.7419C5.42515 11.7419 5.19405 11.973 5.19405 12.2581C5.19405 12.5431 5.42515 12.7742 5.71018 12.7742H5.93599V14.9677H4.06502V2.83871H11.936V14.9677H10.065ZM7.25857 4.35484C7.25857 4.63987 7.02747 4.87097 6.74244 4.87097H6.16179C5.87676 4.87097 5.64567 4.63987 5.64567 4.35484C5.64567 4.06981 5.87676 3.83871 6.16179 3.83871H6.74244C7.02747 3.83871 7.25857 4.06981 7.25857 4.35484ZM10.3231 4.35484C10.3231 4.63987 10.092 4.87097 9.80696 4.87097H9.22631C8.94125 4.87097 8.71018 4.63987 8.71018 4.35484C8.71018 4.06981 8.94125 3.83871 9.22631 3.83871H9.80696C10.092 3.83871 10.3231 4.06981 10.3231 4.35484ZM7.25857 6.29032C7.25857 6.57535 7.02747 6.80645 6.74244 6.80645H6.16179C5.87676 6.80645 5.64567 6.57535 5.64567 6.29032C5.64567 6.00529 5.87676 5.77419 6.16179 5.77419H6.74244C7.02747 5.77419 7.25857 6.00529 7.25857 6.29032ZM10.3231 6.29032C10.3231 6.57535 10.092 6.80645 9.80696 6.80645H9.22631C8.94125 6.80645 8.71018 6.57535 8.71018 6.29032C8.71018 6.00529 8.94125 5.77419 9.22631 5.77419H9.80696C10.092 5.77419 10.3231 6.00529 10.3231 6.29032ZM7.25857 8.22581C7.25857 8.51084 7.02747 8.74193 6.74244 8.74193H6.16179C5.87676 8.74193 5.64567 8.51084 5.64567 8.22581C5.64567 7.94077 5.87676 7.70968 6.16179 7.70968H6.74244C7.02747 7.70968 7.25857 7.94077 7.25857 8.22581ZM10.3231 8.22581C10.3231 8.51084 10.092 8.74193 9.80696 8.74193H9.22631C8.94125 8.74193 8.71018 8.51084 8.71018 8.22581C8.71018 7.94077 8.94125 7.70968 9.22631 7.70968H9.80696C10.092 7.70968 10.3231 7.94077 10.3231 8.22581ZM7.25857 10.1613C7.25857 10.4463 7.02747 10.6774 6.74244 10.6774H6.16179C5.87676 10.6774 5.64567 10.4463 5.64567 10.1613C5.64567 9.87626 5.87676 9.64516 6.16179 9.64516H6.74244C7.02747 9.64516 7.25857 9.87626 7.25857 10.1613ZM10.3231 10.1613C10.3231 10.4463 10.092 10.6774 9.80696 10.6774H9.22631C8.94125 10.6774 8.71018 10.4463 8.71018 10.1613C8.71018 9.87626 8.94125 9.64516 9.22631 9.64516H9.80696C10.092 9.64516 10.3231 9.87626 10.3231 10.1613Z" fill="#F58667"/>
</svg>
