<svg width="16" height="16" viewBox="0 0 16 16" fill="none" xmlns="http://www.w3.org/2000/svg">
<path d="M6.2666 5.1875H7.38478V6.3125H6.2666V5.1875Z" fill="#F58667"/>
<path d="M6.2666 7.4375H7.38478V8.5625H6.2666V7.4375Z" fill="#F58667"/>
<path d="M6.2666 9.6875H7.38478V10.8125H6.2666V9.6875Z" fill="#F58667"/>
<path d="M8.50244 5.1875H9.62062V6.3125H8.50244V5.1875Z" fill="#F58667"/>
<path d="M8.50244 7.4375H9.62062V8.5625H8.50244V7.4375Z" fill="#F58667"/>
<path d="M8.50244 9.6875H9.62062V10.8125H8.50244V9.6875Z" fill="#F58667"/>
<path d="M14.6514 14.1876H11.8565V7.43757H12.9745V12.5001C12.9745 12.6492 13.0334 12.7923 13.1382 12.8978C13.243 13.0033 13.3852 13.0626 13.5335 13.0626C13.6817 13.0626 13.8239 13.0033 13.9287 12.8978C14.0336 12.7923 14.0925 12.6492 14.0925 12.5001V6.87507C14.0925 6.72588 14.0336 6.58281 13.9287 6.47732C13.8239 6.37183 13.6817 6.31257 13.5335 6.31257H11.8565V4.62507C11.8565 4.5206 11.8276 4.4182 11.7731 4.32933C11.7185 4.24046 11.6404 4.16864 11.5476 4.12191L4.83971 0.746909C4.75448 0.704017 4.65977 0.683761 4.56457 0.688067C4.46937 0.692374 4.37685 0.721098 4.29579 0.771512C4.21473 0.821926 4.14782 0.892356 4.10142 0.976113C4.05502 1.05987 4.03067 1.15417 4.03068 1.25007V2.93757H2.35372C2.20547 2.93757 2.06329 2.99683 1.95846 3.10232C1.85363 3.20781 1.79473 3.35088 1.79473 3.50007V14.1876H1.23575C1.08749 14.1876 0.945312 14.2468 0.840481 14.3523C0.735651 14.4578 0.676758 14.6009 0.676758 14.7501C0.676758 14.8992 0.735651 15.0423 0.840481 15.1478C0.945312 15.2533 1.08749 15.3126 1.23575 15.3126H14.6514C14.7997 15.3126 14.9419 15.2533 15.0467 15.1478C15.1515 15.0423 15.2104 14.8992 15.2104 14.7501C15.2104 14.6009 15.1515 14.4578 15.0467 14.3523C14.9419 14.2468 14.7997 14.1876 14.6514 14.1876ZM2.91271 4.06257H4.03068V12.5001C4.03068 12.6492 4.08958 12.7923 4.19441 12.8978C4.29924 13.0033 4.44142 13.0626 4.58967 13.0626C4.73792 13.0626 4.8801 13.0033 4.98493 12.8978C5.08977 12.7923 5.14866 12.6492 5.14866 12.5001V2.1603L10.7385 4.9728V14.1876H9.62056V12.5001C9.62056 12.3509 9.56167 12.2078 9.45684 12.1023C9.35201 11.9968 9.20982 11.9376 9.06157 11.9376H6.82562C6.67737 11.9376 6.53519 11.9968 6.43036 12.1023C6.32553 12.2078 6.26663 12.3509 6.26663 12.5001V14.1876H2.91271V4.06257ZM8.50258 14.1876H7.38461V13.0626H8.50258V14.1876Z" fill="#F58667"/>
</svg>
