<svg width="18" height="18" viewBox="0 0 18 18" fill="none" xmlns="http://www.w3.org/2000/svg">
<path d="M14.5408 5.40915C14.3293 5.19622 13.9973 5.16482 13.7501 5.33444C12.8188 5.97363 8.14764 9.18776 7.64562 9.69324C6.91761 10.4263 6.91761 11.6191 7.64562 12.3522C8.00963 12.7187 8.48781 12.902 8.96593 12.902C9.44405 12.902 9.92221 12.7187 10.2862 12.3522C10.7882 11.8467 13.9802 7.14308 14.615 6.20532C14.7834 5.95642 14.7522 5.62213 14.5408 5.40915ZM9.40599 11.4659C9.16335 11.7103 8.76848 11.7103 8.52584 11.4659C8.28317 11.2215 8.28314 10.8241 8.52571 10.5797C8.72077 10.3856 10.047 9.43319 11.6787 8.29109C10.5445 9.93415 9.59869 11.2695 9.40599 11.4659Z" fill="#F58667"/>
<path d="M3.87019 13.9369L3.10185 14.3143C2.53964 13.304 2.24478 12.1763 2.24478 11.0219C2.24478 10.1762 2.39967 9.36611 2.68233 8.61903L3.56273 9.04426C3.64956 9.08618 3.7412 9.10605 3.83148 9.10605C4.06342 9.10605 4.28608 8.97491 4.3931 8.75023C4.54172 8.43816 4.41102 8.06379 4.10107 7.9141L3.23184 7.49427C4.31222 5.72004 6.18148 4.48306 8.34426 4.2822V5.22481C8.34426 5.57094 8.62291 5.85152 8.96666 5.85152C9.3104 5.85152 9.58905 5.57094 9.58905 5.22481V4.28173C10.3306 4.34969 11.0481 4.53984 11.7292 4.84944C12.0424 4.99186 12.4111 4.8515 12.5525 4.53611C12.6939 4.22062 12.5546 3.84945 12.2413 3.70703C11.2092 3.2379 10.1074 3 8.96662 3C6.83866 3 4.83808 3.83441 3.33335 5.34955C1.82868 6.86473 1 8.87921 1 11.0219C1 12.6053 1.46673 14.1453 2.34975 15.4752C2.46869 15.6543 2.66534 15.7537 2.86755 15.7537C2.95948 15.7537 3.05259 15.7332 3.14007 15.6902L4.41597 15.0635C4.72493 14.9117 4.8532 14.5365 4.70249 14.2254C4.55178 13.9144 4.17915 13.7852 3.87019 13.9369Z" fill="#F58667"/>
<path d="M16.2313 7.72549C16.0899 7.41003 15.7213 7.26965 15.4079 7.41213C15.0946 7.55455 14.9553 7.92573 15.0968 8.24118C15.4896 9.11727 15.6887 10.0532 15.6887 11.0229C15.6887 12.179 15.3929 13.3085 14.829 14.32L14.0268 13.9353C13.7166 13.7865 13.3451 13.9192 13.1973 14.2317C13.0495 14.5442 13.1813 14.9182 13.4917 15.067L14.7987 15.6937C14.8847 15.7349 14.9758 15.7546 15.066 15.7546C15.2682 15.7546 15.4649 15.6552 15.5837 15.4762C16.4667 14.1462 16.9335 12.6063 16.9335 11.0229C16.9335 9.87415 16.6972 8.76474 16.2313 7.72549Z" fill="#F58667"/>
</svg>
