<svg width="27" height="19" viewBox="0 0 27 19" fill="none" xmlns="http://www.w3.org/2000/svg">
<path d="M8.29233 5.50376C8.0054 5.40423 7.71847 5.27485 7.43153 5.11561L7.42197 5.15542C7.26894 5.04262 7.10953 4.95305 6.94375 4.8867C6.77797 4.82035 6.60581 4.76395 6.42727 4.71751C6.74609 4.47865 6.99157 4.19334 7.16373 3.86159C7.34227 3.52984 7.43153 3.13837 7.43153 2.68719C7.43153 2.24264 7.35502 1.85449 7.20199 1.52274C7.05534 1.18435 6.85767 0.902364 6.609 0.676773C6.3667 0.451182 6.08295 0.281989 5.75777 0.169193C5.43895 0.0563978 5.10739 0 4.76307 0C4.32948 0 3.94053 0.0763029 3.59621 0.228909C3.25827 0.381514 2.95859 0.570613 2.69716 0.796204C2.44211 1.0218 2.2285 1.26729 2.05634 1.53269C2.01987 1.58752 1.98497 1.6416 1.95164 1.69494C1.76244 1.99772 1.9029 2.38219 2.22516 2.53589C2.54244 2.68721 2.91509 2.55573 3.11929 2.2696C3.18262 2.18086 3.24595 2.1011 3.30928 2.03032C3.48782 1.8379 3.66316 1.69193 3.83532 1.59241C4.01386 1.49288 4.18602 1.42985 4.3518 1.40331C4.51758 1.37677 4.6738 1.3635 4.82045 1.3635C4.92885 1.3635 5.05638 1.38672 5.20303 1.43317C5.35606 1.47961 5.49953 1.55592 5.63343 1.66208C5.77371 1.7616 5.89167 1.89762 5.98731 2.07013C6.08295 2.24264 6.13078 2.45164 6.13078 2.69714C6.13078 2.99572 6.0447 3.25448 5.87254 3.47344C5.70676 3.68576 5.49634 3.86822 5.24129 4.02083C4.98624 4.1668 4.70887 4.2796 4.40919 4.35922C4.34218 4.37702 4.27629 4.39349 4.21152 4.40864C3.88064 4.48602 3.65174 4.81366 3.73505 5.1431C3.80746 5.42942 4.09102 5.60699 4.3859 5.5907C4.47421 5.58582 4.56486 5.58338 4.65786 5.58338C4.9958 5.58338 5.33056 5.62319 5.66212 5.70281C5.99369 5.78243 6.29018 5.91513 6.55161 6.10091C6.81304 6.28006 7.02345 6.52224 7.18286 6.82745C7.34864 7.13266 7.43153 7.51086 7.43153 7.96204C7.43153 8.22744 7.39009 8.49284 7.3072 8.75824C7.22431 9.02364 7.09678 9.26251 6.92462 9.47483C6.75884 9.68051 6.54523 9.84971 6.28381 9.98241C6.02876 10.1085 5.72588 10.1715 5.37519 10.1715C4.88422 10.1715 4.42831 10.062 4.00748 9.84307C3.58665 9.61748 3.1977 9.30563 2.84063 8.90753C2.48355 8.50943 2.15518 8.03502 1.85549 7.48432C1.67305 7.13764 1.50047 6.77042 1.33776 6.38266C1.18193 6.01129 0.730384 5.85694 0.390216 6.07255C0.157873 6.21981 0.0457066 6.5013 0.131788 6.76256C0.200484 6.97106 0.280892 7.18842 0.373011 7.41465C0.538794 7.79948 0.736458 8.18431 0.966004 8.56915C1.20193 8.95398 1.46654 9.32554 1.75985 9.68383C2.05953 10.0355 2.3911 10.3507 2.75455 10.6293C3.12437 10.9014 3.52607 11.1203 3.95966 11.2862C4.39325 11.4454 4.8619 11.5251 5.36563 11.5251C5.92674 11.5251 6.41771 11.4255 6.83854 11.2265C7.25938 11.0274 7.61007 10.7687 7.89063 10.4502C8.17756 10.1251 8.39116 9.76013 8.53144 9.3554C8.67172 8.95066 8.74186 8.5426 8.74186 8.13123C8.74186 7.60706 8.67809 7.1393 8.55057 6.72792C8.69085 6.76773 8.82794 6.80091 8.96184 6.82745C9.10212 6.84735 9.24877 6.85731 9.4018 6.85731C9.68873 6.85731 9.9916 6.80754 10.3104 6.70802C10.6356 6.60186 10.9385 6.4393 11.219 6.22034V12.2334C11.219 12.5952 11.5124 12.8886 11.8742 12.8886C12.236 12.8886 12.5294 12.5952 12.5294 12.2334V1.58246H13.8228C14.1966 1.58246 14.4996 1.27945 14.4996 0.905682C14.4996 0.53191 14.1966 0.228909 13.8228 0.228909H9.41863C9.04486 0.228909 8.74186 0.53191 8.74186 0.905682C8.74186 1.27945 9.04486 1.58246 9.41863 1.58246H11.219V4.84689C11.0086 5.07248 10.744 5.2649 10.4252 5.42414C10.1128 5.57675 9.72699 5.65305 9.2679 5.65305C8.90445 5.65305 8.57926 5.60328 8.29233 5.50376Z" fill="#333333"/>
<path d="M15.389 18.8378C15.1158 18.8378 14.928 18.7422 14.8255 18.551C14.723 18.3598 14.7344 18.1207 14.8597 17.8339L19.5556 6.61247C19.7378 6.1703 20.0167 5.94922 20.3924 5.94922C20.5631 5.94922 20.7168 6.003 20.8534 6.11055C21.0014 6.20615 21.121 6.37346 21.212 6.61247L25.9251 17.8339C26.0503 18.1207 26.0674 18.3598 25.9763 18.551C25.8852 18.7422 25.7031 18.8378 25.4299 18.8378C25.225 18.8378 25.0599 18.784 24.9347 18.6764C24.8094 18.5569 24.707 18.3896 24.6273 18.1745L23.5173 15.4857H17.2503L16.1575 18.1745C15.9753 18.6167 15.7192 18.8378 15.389 18.8378ZM20.3753 7.79556L17.7626 14.2488H23.0221L20.4094 7.79556H20.3753Z" fill="#333333"/>
</svg>
