<svg width="18" height="18" viewBox="0 0 18 18" fill="none" xmlns="http://www.w3.org/2000/svg">
<path d="M14.5439 5.40134L11.2627 2.12018C11.1861 2.04356 11.0816 2 10.9727 2H5.23047C4.55199 2 4 2.55199 4 3.23047V14.7695C4 15.448 4.55199 16 5.23047 16H13.4336C14.1121 16 14.6641 15.448 14.6641 14.7695V5.69141C14.6641 5.57957 14.6171 5.47454 14.5439 5.40134ZM11.3828 3.40036L13.2637 5.28125H11.793C11.5668 5.28125 11.3828 5.09725 11.3828 4.87109V3.40036ZM13.4336 15.1797H5.23047C5.00431 15.1797 4.82031 14.9957 4.82031 14.7695V3.23047C4.82031 3.00431 5.00431 2.82031 5.23047 2.82031H10.5625V4.87109C10.5625 5.54957 11.1145 6.10156 11.793 6.10156H13.8438V14.7695C13.8438 14.9957 13.6598 15.1797 13.4336 15.1797Z" fill="#F58667"/>
<path d="M11.793 7.79688H6.87109C6.64458 7.79688 6.46094 7.98052 6.46094 8.20703C6.46094 8.43355 6.64458 8.61719 6.87109 8.61719H11.793C12.0195 8.61719 12.2031 8.43355 12.2031 8.20703C12.2031 7.98052 12.0195 7.79688 11.793 7.79688Z" fill="#F58667"/>
<path d="M11.793 9.4375H6.87109C6.64458 9.4375 6.46094 9.62114 6.46094 9.84766C6.46094 10.0742 6.64458 10.2578 6.87109 10.2578H11.793C12.0195 10.2578 12.2031 10.0742 12.2031 9.84766C12.2031 9.62114 12.0195 9.4375 11.793 9.4375Z" fill="#F58667"/>
<path d="M11.793 11.0781H6.87109C6.64458 11.0781 6.46094 11.2618 6.46094 11.4883C6.46094 11.7148 6.64458 11.8984 6.87109 11.8984H11.793C12.0195 11.8984 12.2031 11.7148 12.2031 11.4883C12.2031 11.2618 12.0195 11.0781 11.793 11.0781Z" fill="#F58667"/>
<path d="M10.1523 12.7188H6.87109C6.64458 12.7188 6.46094 12.9024 6.46094 13.1289C6.46094 13.3554 6.64458 13.5391 6.87109 13.5391H10.1523C10.3789 13.5391 10.5625 13.3554 10.5625 13.1289C10.5625 12.9024 10.3789 12.7188 10.1523 12.7188Z" fill="#F58667"/>
</svg>
